<svg xmlns:xlink="http://www.w3.org/1999/xlink" width="95.34581191493247" xmlns="http://www.w3.org/2000/svg" id="screenshot" version="1.1" viewBox="-1.408905076081163 -1.652374861445986 95.34581191493247 30.509814337537353" height="30.509814337537353" style="-webkit-print-color-adjust: exact;"><g id="shape-7f1162c0-41b3-11ec-bb8a-7b924ed4f7a6"><g id="shape-7f1162c1-41b3-11ec-bb8a-7b924ed4f7a6"><path d="M-0.20179829489279655,4.957733378857029C-0.20179829489279655,1.9757365913930016,2.219204784849353,-0.445266500551611,5.201201609325835,-0.4452665525972179L19.24900165163308,-0.44526679777766276L87.32680015344522,-0.4452679859592763C90.30879697792352,-0.4452680380049969,92.72980005766476,1.9757349694306185,92.72980005766476,4.957731756894532L92.72980005766476,22.247331235788124C92.72980005766476,25.22932802325215,90.30879697792352,27.650331115196764,87.32680015344522,27.650331167242484L5.201201609325835,27.650332600604656C2.219204784849353,27.650332652650263,-0.20179829489279655,25.229329645214534,-0.20179829489279655,22.247332857750507L-0.20179829489279655,4.957733378857029Z" style="fill: rgb(255, 255, 255); fill-opacity: 1; stroke-width: 1; stroke: rgb(43, 154, 243); stroke-opacity: 1;"/></g><g id="shape-7f1162c2-41b3-11ec-bb8a-7b924ed4f7a6"><g><path d="M740 505 c0 -189 2 -225 14 -225 8 0 17 9 21 20 6 19 6 19 38 0 91
-56 186 17 187 142 0 59 -12 92 -46 123 -34 32 -97 34 -134 5 -14 -11 -28 -20
-32 -20 -5 0 -8 41 -8 90 0 83 -1 90 -20 90 -19 0 -20 -7 -20 -225z m177 40
c53 -37 54 -155 3 -207 -32 -32 -57 -35 -106 -12 l-34 16 0 88 0 88 33 21 c38
25 74 27 104 6z M60 485 l0 -205 25 0 c25 0 25 1 25 90 l0 90 43 0 42 0 50
-90 c41 -74 54 -90 73 -90 l24 0 -22 38 c-75 125 -84 146 -69 150 7 3 29 20
46 38 25 24 33 41 33 68 0 89 -40 116 -174 116 l-96 0 0 -205z m207 149 c21
-21 24 -32 19 -62 -8 -54 -36 -72 -112 -72 l-64 0 0 80 0 80 65 0 c57 0 69 -3
92 -26z M1800 630 c0 -34 -4 -41 -25 -46 -14 -3 -25 -12 -25 -20 0 -8 10 -14
25 -14 l25 0 0 -113 c0 -107 1 -115 24 -136 18 -17 33 -22 62 -19 46 4 60 28
16 28 -53 0 -62 19 -62 136 l0 104 40 0 c33 0 40 3 40 20 0 17 -7 20 -40 20
l-40 0 0 40 c0 33 -3 40 -20 40 -17 0 -20 -7 -20 -40z M459 563 c-82 -70 -77
-202 10 -260 52 -35 161 -26 161 13 0 12 -5 14 -17 8 -39 -16 -93 -16 -119 1
-23 15 -54 69 -54 95 0 6 39 10 105 10 l105 0 0 35 c0 43 -22 88 -52 109 -36
26 -101 20 -139 -11z m121 -13 c17 -9 40 -58 40 -86 0 -11 -21 -14 -90 -14
-75 0 -90 3 -90 15 0 24 28 73 47 84 23 13 69 14 93 1z M1155 581 c-42 -18
-85 -93 -85 -148 1 -79 69 -153 141 -153 134 0 188 192 80 283 -34 28 -92 36
-136 18z m111 -44 c49 -43 49 -161 -1 -204 -73 -64 -151 2 -143 120 4 50 9 64
32 84 34 29 77 29 112 0z M1479 563 c-76 -64 -79 -184 -6 -252 37 -34 111 -39
155 -11 37 23 72 88 72 135 0 47 -35 112 -72 135 -48 29 -109 27 -149 -7z
m122 -13 c65 -35 65 -195 0 -230 -80 -42 -160 54 -131 159 17 65 79 98 131 71z" transform="translate(31, 2) scale(0.25, 0.25) translate(0.000000,96.000000) scale(0.100000,-0.100000)" fill="#2b9af3" stroke="none"/></g></g><g id="shape-7f1162c3-41b3-11ec-bb8a-7b924ed4f7a6" class="svg-inline--fa fa-redo fa-w-16"><g id="shape-7f1162c4-41b3-11ec-bb8a-7b924ed4f7a6"><path fill="currentColor" d="M25.33226637748794,6.03833260323961L23.705877536915978,6.03833260323961C23.59322536851414,6.038205442253002,23.485442769197107,6.08425010829842,23.407654504427228,6.16573331564598C23.32986623965553,6.247216522993199,23.28886932097157,6.357018402054678,23.2942203741477,6.469543481239498L23.43143942840561,9.308605713798556C21.81665062351749,7.405762128346623,19.44624954777828,6.310022524576652,16.950583495888168,6.312770711751909C12.262494507228439,6.312770711751909,8.439571655652799,10.138780992047941,8.443002132010406,14.826869980708125C8.446432608366194,19.522506017352384,12.254261363972546,23.327933439509934,16.950583495888168,23.327933439509934C19.057254042244494,23.330908776159163,21.089548849571656,22.549322778227747,22.65134910495817,21.13551600013284C22.735669897861953,21.060053881152385,22.78520961068898,20.953209595422322,22.78832463192066,20.84009538694488C22.791439653153247,20.726981178467554,22.747855274998074,20.617572373880762,22.667815391469958,20.537583971211916L21.501453430293623,19.3712220100349C21.348279572540378,19.21808771173744,21.102642420603843,19.209839822020285,20.939541403113253,19.352354390074765C19.052442421258093,21.012640838271977,16.334150276643413,21.33013122310149,14.115229025815097,20.14941866705317C11.89630777498678,18.968706111005076,10.640991975090401,16.536814959972048,10.963740261954626,14.04412019311576C11.286488548819761,11.55142542625913,13.119776710862425,9.519439490566242,15.566237134913536,8.942789639328794C18.012697558966465,8.366139788091346,20.560490777490486,9.365470585967387,21.962509452593622,11.451624293643476L18.479546807937368,11.28456009508659C18.36702172875266,11.279209041909212,18.257219849690955,11.32020596059283,18.17573664234351,11.397994225363618C18.094253434996972,11.475782490134407,18.048208768950644,11.583565089452577,18.04833592993782,11.696217257854755L18.04833592993782,13.322606098425467C18.04833592993782,13.549958071581159,18.232641119550863,13.734263261193746,18.4599930927061,13.734263261193746L25.33226637748794,13.734263261193746C25.559618350642268,13.734263261193746,25.74392354025622,13.549958071581159,25.74392354025622,13.322606098425467L25.74392354025622,6.449989766008002C25.74392354025622,6.222637792852311,25.559618350642268,6.03833260323961,25.33226637748794,6.03833260323961ZZ" style="fill: rgb(55, 153, 204); fill-opacity: 1;"/></g></g></g></svg>