<svg xmlns:xlink="http://www.w3.org/1999/xlink" width="86.84291783754064" xmlns="http://www.w3.org/2000/svg" id="screenshot" version="1.1" viewBox="-0.7686615366627564 -1.0641161561250043 86.84291783754064 29.48713683484492" height="29.48713683484492" style="-webkit-print-color-adjust: exact;"><g id="shape-9da75ad0-41a6-11ec-bb8a-7b924ed4f7a6"><g id="shape-9da75ad1-41a6-11ec-bb8a-7b924ed4f7a6"><rect rx="5" ry="5" x="0" y="0" transform="matrix(1.0000000139355296,-1.745329352642876e-8,-9.277246641630302e-16,1.0000000271751306,-5.922599939367501e-7,3.6131314651299817e-7)" width="85" height="28" style="fill: rgb(255, 255, 255); fill-opacity: 1; stroke-width: 1; stroke: rgb(43, 154, 243); stroke-opacity: 1;"/></g><g id="shape-9da75ad2-41a6-11ec-bb8a-7b924ed4f7a6"><g><path d="M770 505 c0 -185 2 -225 14 -225 7 0 16 10 19 21 l6 21 27 -21 c90
-71 208 34 190 167 -15 108 -97 154 -182 101 l-34 -21 0 91 c0 84 -1 91 -20
91 -19 0 -20 -7 -20 -225z m187 29 c23 -23 25 -31 21 -101 -3 -67 -6 -78 -31
-99 -32 -28 -54 -30 -102 -10 l-35 15 0 91 0 90 33 20 c44 27 83 25 114 -6z
M60 484 l0 -207 79 6 c44 4 95 13 114 21 136 56 136 316 0 372 -18 8 -67 14
-113 14 l-80 0 0 -206z m176 161 c98 -41 98 -262 0 -309 -19 -9 -55 -16 -80
-16 l-46 0 0 170 0 170 45 0 c25 0 61 -7 81 -15z M498 573 c-39 -24 -68 -83
-68 -137 0 -84 49 -145 124 -153 52 -6 106 12 106 34 0 11 -5 13 -17 7 -10 -4
-37 -9 -59 -12 -35 -3 -47 1 -73 25 -17 15 -34 43 -37 61 l-6 32 106 0 106 0
0 30 c0 42 -23 94 -51 114 -30 21 -96 20 -131 -1z m122 -35 c12 -13 20 -35 20
-55 l0 -33 -86 0 -86 0 6 33 c13 69 101 103 146 55z M1120 470 c0 -160 15
-190 92 -190 18 0 45 11 64 25 18 14 35 25 38 25 3 0 6 -11 6 -25 0 -18 5 -25
20 -25 19 0 20 7 20 155 l0 155 -25 0 -25 0 0 -114 0 -114 -31 -26 c-34 -29
-66 -33 -95 -12 -17 13 -19 29 -22 140 -3 116 -5 126 -23 126 -18 0 -19 -8
-19 -120z M1515 578 c-54 -30 -73 -104 -36 -149 18 -22 18 -24 0 -54 -17 -28
-17 -33 -3 -59 13 -27 13 -31 -6 -51 -42 -45 -12 -104 61 -120 88 -20 189 35
189 100 0 48 -29 65 -107 65 -86 0 -115 12 -111 48 3 25 6 27 53 28 60 0 90
15 110 54 19 37 19 61 0 86 -22 29 -18 34 20 34 24 0 35 5 35 15 0 12 -17 15
-92 15 -51 0 -102 -6 -113 -12z m109 -40 c22 -31 20 -84 -4 -108 -44 -44 -120
-11 -120 53 0 51 24 77 70 77 29 0 43 -6 54 -22z m37 -268 c53 -29 -2 -100
-77 -100 -83 0 -121 35 -93 86 11 22 19 24 81 24 38 0 78 -5 89 -10z" transform="translate(31, 2) scale(0.25, 0.25) translate(0.000000,96.000000) scale(0.100000,-0.100000)" fill="#2b9af3" stroke="none"/></g></g><g id="shape-addc3830-41a6-11ec-bb8a-7b924ed4f7a6" class="svg-inline--fa fa-bug fa-w-16"><g id="shape-addc3831-41a6-11ec-bb8a-7b924ed4f7a6"><path fill="currentColor" d="M25.01415836837623,14.853925311304238C24.997265010018054,15.469932081593583,24.47636289944421,15.953053857259306,23.860144078631492,15.953053857259306L21.90450812717063,15.953053857259306L21.90450812717063,16.518521919487284C21.90450812717063,17.29123402652135,21.731969684683463,18.023515167106325,21.423860274277104,18.67949346104433L23.55242342751808,20.808056614284965C23.99405398411818,21.24972251263864,23.99405398411818,21.96578178818845,23.55242342751808,22.407447686542355C23.11072218740992,22.849113584895804,22.394662911860905,22.849078243142003,21.95299701350814,22.407447686542355L20.018530772624217,20.472981445661276C19.143822363867002,21.18239647147982,18.029320154971174,21.607734479536703,16.81529556712212,21.607734479536703L16.81529556712212,12.98434653056404C16.81529556712212,12.750136727539825,16.625404323474868,12.560245483893254,16.39119452045088,12.560245483893254L15.542992427109311,12.560245483893254C15.308782624085325,12.560245483893254,15.118891380437162,12.750136727539825,15.118891380437162,12.98434653056404L15.118891380437162,21.607734479536703C13.904866792588109,21.607734479536703,12.79036458369228,21.18239647147982,11.915656174933247,20.472981445661276L9.981189934052964,22.407447686542355C9.539488693944804,22.849113584895804,8.823429418393061,22.849078243142003,8.381763520041204,22.407447686542355C7.940132963442011,21.96578178818845,7.940132963442011,21.24972251263864,8.381763520041204,20.808056614284965L10.51032667328127,18.67949346104433C10.202217262874,18.023515167106325,10.029678820387744,17.29123402652135,10.029678820387744,16.518521919487284L10.029678820387744,15.953053857259306L8.074078210682273,15.953053857259306C7.457859389868645,15.953053857259306,6.936957279294802,15.469932081593583,6.920063920935718,14.853925311304238C6.902499069253281,14.214805033971402,7.415378601695011,13.691181608348415,8.050540602590445,13.691181608348415L10.029678820387744,13.691181608348415L10.029678820387744,11.615030276125594L8.381763520041204,9.967114975778372C7.940132963442011,9.525449077424696,7.940132963442011,8.809389801875,8.381763520041204,8.36772390352121C8.823464760148454,7.926058005167306,9.539488693944804,7.926058005167306,9.981189934052964,8.36772390352121L11.91180392376009,10.29837323498225L20.02234768204562,10.29837323498225L21.952961671752746,8.36775924527501C22.394662911860905,7.9260933469212205,23.110686845655437,7.9260933469212205,23.552388085764505,8.36775924527501C23.99401864236279,8.809425143628687,23.99401864236279,9.525484419178383,23.552388085764505,9.9671503175324L21.90450812717063,11.615030276125594L21.90450812717063,13.691181608348415L23.88364634496702,13.691181608348415C24.51880834586518,13.691181608348415,25.031687878305092,14.214805033971402,25.01415836837623,14.853925311304238ZZM16.002435227667775,4.643692612704967C13.816335699095362,4.643692612704967,12.044158792074086,6.415869519726812,12.044158792074086,8.60196904829877L19.960711663262373,8.60196904829877C19.960711663262373,6.415869519726812,18.188534756240188,4.643692612704967,16.002435227667775,4.643692612704967ZZ" style="fill: rgb(55, 153, 204); fill-opacity: 1;"/></g></g></g></svg>