<svg xmlns:xlink="http://www.w3.org/1999/xlink" width="167.4605148667795" xmlns="http://www.w3.org/2000/svg" id="screenshot" version="1.1" viewBox="-0.23662460327992527 0.12244992276745428 167.4605148667795 32.72513207718979" height="32.72513207718979" style="-webkit-print-color-adjust: exact;"><g id="shape-962599da-4192-11ec-8a9f-ab36af4492a0"><g id="shape-962599c8-4192-11ec-8a9f-ab36af4492a0" style="fill: rgb(255, 255, 255);"><g id="shape-962599d3-4192-11ec-8a9f-ab36af4492a0" style="fill: rgb(255, 255, 255);"><g id="shape-962599d5-4192-11ec-8a9f-ab36af4492a0"><path d="M58.67633934359537,11.262632002959663C56.37257473512318,11.262632002959663,54.36406726954874,12.14872121846065,53.09401096185411,13.891369192086131L53.09401096185411,11.410317491448609L50.376649198991345,11.410317491448609L50.376649198991345,32.79467535471258L53.212161249879955,32.79467535471258L53.212161249879955,24.701698411744132C54.511766987298415,26.385266498270084,56.46117559342565,27.241829999481297,58.67633934359583,27.241829999481297C63.2545088542829,27.241829999481297,66.59212405613152,24.051890799948296,66.59212405613152,19.2374728871622C66.59212405613152,14.452561716319337,63.2545088542829,11.26263200295972,58.67633934359537,11.262632002959663ZZM58.44013362927626,24.76076406958373C55.456921860638886,24.76076406958373,53.18265925102287,22.575073859750944,53.18265925102287,19.2374728871622C53.18265925102287,15.929383399603239,55.456921860638886,13.743688446683905,58.44013362927626,13.743688446683905C61.45284739677072,13.743688446683905,63.72715743725257,15.929383399603239,63.72715743725257,19.2374728871622C63.72715743725257,22.575073859750944,61.45284739677072,24.76076406958373,58.44013362927626,24.76076406958373ZZ" style="font: 500 medium / 22.5552px Montserrat; stroke-opacity: 1; stroke: none; word-spacing: 0px; letter-spacing: -2.11667px; stroke-linejoin: miter; fill: rgb(255, 255, 255); fill-opacity: 1; stroke-width: 0.0438293;"/></g><g id="shape-962599c3-4192-11ec-8a9f-ab36af4492a0"><path d="M76.73948359858696,27.241829999481297C81.43570853556776,27.241829999481297,84.86197202658559,23.904200568372516,84.86197202658559,19.237472887162085C84.86197202658559,14.57070726125869,81.43570853556776,11.262632002959663,76.73948359858696,11.262632002959663C72.04316379987404,11.262632002959663,68.58739830999957,14.57070726125869,68.58739830999957,19.237472887162085C68.58739830999957,23.904200568372516,72.04316379987404,27.241829999481297,76.73948359858696,27.241829999481297ZZM76.73948359858696,24.76076406958373C73.72676983109295,24.76076406958373,71.45241235974436,22.575073859750944,71.45241235974436,19.2374728871622C71.45241235974436,15.899848199140251,73.72676983109295,13.743688446683905,76.73948359858696,13.743688446683905C79.75219736608142,13.743688446683905,81.9969579768399,15.899848199140251,81.9969579768399,19.2374728871622C81.9969579768399,22.575073859750944,79.75219736608142,24.76076406958373,76.73948359858696,24.76076406958373ZZ" style="font: 500 medium / 22.5552px Montserrat; stroke-opacity: 1; stroke: none; word-spacing: 0px; letter-spacing: -2.11667px; stroke-linejoin: miter; fill: rgb(255, 255, 255); fill-opacity: 1; stroke-width: 0.0438293;"/></g><g id="shape-962599cb-4192-11ec-8a9f-ab36af4492a0"><path d="M100.24090869427846,5.148598866581892L100.24090869427846,13.773228390233612C98.94130295686045,12.089646074447785,96.99194178159905,11.262632002959663,94.77673060056259,11.262632002959663C90.1986085207418,11.262632002959663,86.86099331889318,14.452561716319337,86.86099331889318,19.237472887162085C86.86099331889318,24.02235559948508,90.1986085207418,27.241829999481297,94.77673060056259,27.241829999481297C97.08054263990198,27.241829999481297,99.08905010547551,26.355736040893476,100.35905898230476,24.583543380631568L100.35905898230476,27.06460931052891L103.07642074516707,27.06460931052891L103.07642074516707,5.148598866581892ZM95.01298374574844,24.76076406958373C92.00031740912027,24.76076406958373,89.72600736863888,22.575073859750944,89.72600736863888,19.2374728871622C89.72600736863888,15.899848199140251,92.00031740912027,13.743688446683905,95.01298374574844,13.743688446683905C97.99619551438582,13.743688446683905,100.27045812400183,15.899848199140251,100.27045812400183,19.2374728871622C100.27045812400183,22.575073859750944,97.99619551438582,24.76076406958373,95.01298374574844,24.76076406958373ZZ" style="font: 500 medium / 22.5552px Montserrat; stroke-opacity: 1; stroke: none; word-spacing: 0px; letter-spacing: -2.11667px; stroke-linejoin: miter; fill: rgb(255, 255, 255); fill-opacity: 1; stroke-width: 0.0438293;"/></g><g id="shape-962599c1-4192-11ec-8a9f-ab36af4492a0"><path d="M126.3609919200021,11.262632002959549C123.70272901658564,11.262632002959549,121.51701983440626,12.385017051425848,120.33556438501364,14.15720022551443C119.3017612225035,12.20780110556018,117.293348618663,11.262632002959549,114.90088829015485,11.262632002959549C112.53792996050379,11.262632002959549,110.61811821496576,12.14872121846065,109.4957141941527,13.743688446683905L109.4957141941527,11.410317491448609L106.77835243129039,11.410317491448609L106.77835243129039,27.064609310529022L109.613864482179,27.064609310529022L109.613864482179,19.001162824936955C109.613864482179,15.604481965248567,111.47462479913747,13.802758847609994,114.31013685002608,13.802758847609994C116.87979889513963,13.802758847609994,118.35665378002977,15.30911573135711,118.35665378002977,18.380904642864266L118.35665378002977,27.064609310529022L121.19216583091838,27.064609310529022L121.19216583091838,19.001162824936955C121.19216583091838,15.604481965248567,123.05292614787686,13.802758847609994,125.88843819876502,13.802758847609994C128.45805281301273,13.802758847609994,129.93490769790333,15.30911573135711,129.93490769790333,18.380904642864266L129.93490769790333,27.064609310529022L132.7703723179252,27.064609310529022L132.7703723179252,18.05600320850965C132.7703723179252,13.448326955878883,130.17120827395456,11.262632002959549,126.3609919200021,11.262632002959549ZZ" style="font: 500 medium / 22.5552px Montserrat; stroke-opacity: 1; stroke: none; word-spacing: 0px; letter-spacing: -2.11667px; stroke-linejoin: miter; fill: rgb(255, 255, 255); fill-opacity: 1; stroke-width: 0.0438293;"/></g><g id="shape-962599d1-4192-11ec-8a9f-ab36af4492a0"><path d="M142.02517781779852,11.262632002959663C139.51456720126498,11.262632002959663,137.18115830133638,11.971505272595095,135.5566985604296,13.271111010013556L136.73815400982267,15.397730818919968C137.9491114580719,14.363960858016583,139.8394686356196,13.71415324622069,141.70022895257762,13.71415324622069C144.50623900461005,13.71415324622069,145.89444560033053,15.102369328115174,145.89444560033053,17.494810684276672L145.89444560033053,18.056003208509708L141.40487694794638,18.056003208509708C136.73815400982267,18.056003208509708,135.1135994071833,20.123543130316648,135.1135994071833,22.634134774503877C135.1135994071833,25.351482308106654,137.35840744880852,27.241829999481297,140.9027737969859,27.241829999481297C143.35433298494036,27.241829999481297,145.09694301387253,26.4148016987333,146.04209788721346,24.997045673288994L146.04209788721346,27.064609310529136L148.72995765121914,27.064609310529136L148.72995765121914,17.61296097230263C148.72995765121914,13.330181410939872,146.30794789298807,11.26263200295972,142.02517781779852,11.262632002959663ZZM141.3753749490893,25.056139789648455C139.21921519663283,25.056139789648455,137.91956202834854,24.08142125732479,137.91956202834854,22.51600820191129C137.91956202834854,21.186857777856517,138.71706461480653,20.09400792985349,141.52302723597222,20.09400792985349L145.89444560033053,20.09400792985349L145.89444560033053,22.279702882772995C145.18554387217546,24.08142125732479,143.50193784095654,25.056139789648455,141.3753749490893,25.056139789648455ZZ" style="font: 500 medium / 22.5552px Montserrat; stroke-opacity: 1; stroke: none; word-spacing: 0px; letter-spacing: -2.11667px; stroke-linejoin: miter; fill: rgb(255, 255, 255); fill-opacity: 1; stroke-width: 0.0438293;"/></g><g id="shape-962599c4-4192-11ec-8a9f-ab36af4492a0"><path d="M160.6729075002968,11.262632002959549C158.191893744352,11.262632002959549,156.18343370964476,12.178261162010415,155.03148025910923,13.773228390233555L155.03148025910923,11.410317491448609L152.3141659271132,11.410317491448609L152.3141659271132,27.064609310529022L155.14967797800136,27.064609310529022L155.14967797800136,19.001162824936955C155.14967797800136,15.604481965248567,157.09903915326277,13.802758847609994,160.11180035162306,13.802758847609994C162.79951782303033,13.802758847609994,164.33547156736677,15.30911573135711,164.33547156736677,18.380904642864266L164.33547156736677,27.064609310529022L167.17098361825492,27.064609310529022L167.17098361825492,18.05600320850965C167.17098361825492,13.448326955878883,164.48312385424924,11.262632002959549,160.6729075002968,11.262632002959549ZZ" style="font: 500 medium / 22.5552px Montserrat; stroke-opacity: 1; stroke: none; word-spacing: 0px; letter-spacing: -2.11667px; stroke-linejoin: miter; fill: rgb(255, 255, 255); fill-opacity: 1; stroke-width: 0.0438293;"/></g></g><g id="shape-962599d2-4192-11ec-8a9f-ab36af4492a0" style="fill: rgb(255, 255, 255);"><g id="shape-962599d7-4192-11ec-8a9f-ab36af4492a0"><path d="M16.743271628513867,0.35908869479783334C8.581140329246864,0.35908869479783334,1.9475426834142127,6.97880437246306,1.9475426834142127,15.13622165443644C1.9475426834142127,18.637381900812898,1.9908899688707606,22.00612160852853,1.4290007811323449,24.521651278179547C0.4133738828704736,26.737374866376854,0.08247154251193933,28.2737272864249,0.0000033319292924716137,30.73522998316446C1.279290093984855,30.935386073763084,2.930496565262274,31.094145506749896,4.827969802043299,31.218443847798426C8.622862091498973,31.467094714002087,13.41051558613799,31.573187195158653,18.108006727025895,31.557094515432595C22.8054978679138,31.540839283386163,27.41033418613688,31.403049099739178,30.85936932175173,31.156457229594594C32.5839410736653,31.033134202469,33.3202489012624,30.879468075523278,34.34714609374305,30.700118681944105C34.53245573907225,28.545931983863966,33.27045370709311,26.75593834137385,32.69100886874412,25.114289946539543C32.06940879528884,22.707404829476218,31.986019454890084,19.274012645501273,31.834033035255743,15.262188865975077C31.519765215691223,6.978159581591854,24.90534874367313,0.359077857976672,16.743271628513867,0.35908869479783334ZZM9.092421561213996,6.57267823660402C10.021516440881896,6.506031785213622,10.954783496775235,6.7578795137198995,11.717045511540164,7.293364786204563C12.501089537247026,7.844027027009815,11.673698226082706,9.019014801844264,10.891062987153418,8.468341724217453C10.406115231101012,8.127740428737809,9.78668252191801,7.959390408843433,9.195696468816095,8.001654012164124C8.588075894920166,8.045001297621354,7.982893605831123,8.316680409224148,7.547795228054383,8.742984706463517C6.862799749617807,9.413133739631576,5.856871806477102,8.384773576266753,6.542138205448282,7.714613706277419C7.226916947457539,7.043809045416765,8.136234628135753,6.641221131733232,9.092421561213996,6.57267823660402ZZM24.80705877389937,6.57267823660402C25.763137338763954,6.641221131733232,26.672617571762657,7.043809045416765,27.35734212966554,7.71461912468817C28.0423917922094,8.384573095071573,27.32483166557313,9.41295493207906,26.64081150105858,8.742990124874268C26.20571312328184,8.316669572402816,25.307340632181422,8.045006716031935,24.699720058285493,8.001659430574875C24.10867982107675,7.95939582725407,23.493419288119185,8.12769166304156,23.00847153206678,8.468347142628204C22.22583629313749,9.019020220255015,21.39844498197317,7.844032445420453,22.182489007680033,7.293370204615144C22.944805206551337,6.757922861005397,23.877855526017356,6.506037203624317,24.80705877389937,6.57267823660402ZZM24.89375334481383,10.151316337324602C26.814471563422103,10.20008203346407,28.312607932928586,11.870149992326333,28.26384223678906,13.824955432535262C28.215076540649534,15.779733780691004,26.63273806914185,17.36357315195761,24.71201985053449,17.314802037407503C22.79130163192667,17.266036341268205,21.28492927818297,15.60629045475548,21.333694974322043,13.65149585136777C21.38246067046157,11.696712084801334,22.973035126206014,10.102556059596054,24.89375334481383,10.151316337324602ZZM9.07378222846819,10.153380751794543C10.994500447075552,10.104615055655245,12.585074902820452,11.688465263743183,12.633840598959978,13.643238193488173C12.682606295098594,15.598032796875884,11.174229129403102,17.257784101799416,9.253456726687546,17.30654437952785C7.332738508080183,17.355310075667262,5.754572212797939,15.771481541222101,5.705806516658413,13.816697774655722C5.657040820518887,11.86189233444668,7.153009825753543,10.20215186634465,9.07378222846819,10.153380751794543ZZM9.302981000322688,11.468797476278212C8.536356870190502,11.488836651100257,7.931822734974048,12.158983052820304,7.952442137797334,12.96591518457683C7.973756556660192,13.772165529947074,8.611299758153109,14.409696609463538,9.377321594881778,14.390767549607801C9.745833419559403,14.381694888345692,10.095424258973253,14.2188237274313,10.349108606591926,13.938020907206635C10.602792954211509,13.65721808698197,10.739766426530878,13.281511948043772,10.729865269358925,12.893639004487795C10.708549755688182,12.086548949366033,10.069770439733475,11.448684115837864,9.302981000322688,11.468797476278212ZZM24.730550815067545,11.468797476278212C23.963810389942864,11.449912822053761,23.32598692263582,12.0886652762332,23.305725542089476,12.895698000546986C23.285100159965623,13.702612608512482,23.88960340008225,14.372756498963156,24.656210220513003,14.392826545667333C25.024781392382465,14.402494649989308,25.382269302439,14.257539209211984,25.64991990616636,13.989893687136714C25.91757050989372,13.72224816506133,26.073424929851626,13.353871022213411,26.083148673651976,12.965915184576943C26.093046961555956,12.578034445050207,25.956064875745597,12.202322616255628,25.70236917957618,11.921520516176429C25.448673483406765,11.640718416097286,25.099070343870608,11.477855270196073,24.730550815067545,11.468797476278212ZZM16.759689412881016,14.014935747872755L16.759689412881016,14.014935747872755ZC19.6556131860616,13.92125142717839,22.158539632465818,15.941765933729926,22.25878023008545,18.599236289610644C22.275035462131655,19.07096312359829,22.19430114296756,19.519146963172204,22.06859401514157,19.95180705614166C24.115994675498314,20.217200811353223,25.758260769150183,21.03219479887639,27.047300670433287,21.98169541317327L26.624122796157735,22.551647196006968C25.375612606777395,21.631958677283365,23.789752168325776,20.88665086954336,21.802333314221414,20.662171533392552C21.734603180694194,20.799853348825877,21.656578066871134,20.93233349000434,21.575301906639197,21.062754635123838C23.709993163085073,21.73095845885689,25.113578266188142,23.127136594557896,26.2132988982371,24.44729984679907L25.67199967109036,24.901579398390425C24.560304351434297,23.566932734395778,23.218543314214457,22.251245089378074,21.118692438454673,21.67398928894471C21.008156860538747,21.800671730693466,20.908458103987414,21.931797269201297,20.784376499366317,22.047751257799405C22.790272133897815,23.118223308985876,23.773984593241494,24.93581291708017,24.476589906395475,26.60726798907706L23.821991711885403,26.88192722655515C23.101993300441336,25.169032149661234,22.17950888180576,23.45587698905456,20.18136157455001,22.520648468494528C19.323302058925037,23.116207660212126,18.269475365354992,23.494575278146385,17.118984225214263,23.532498734510796C15.853243489864326,23.573678655695176,14.678369501654743,23.193685514556137,13.73236918065868,22.549555689483668L13.748624412704885,22.5744803786215C11.763047818231826,23.62438956126931,10.930292280492722,25.406331445485762,10.308367102395096,27.17943048346899L9.641360747422368,26.94611371949577C10.252503288262233,25.20379125418708,11.144427870650361,23.28757573485626,13.158017648350324,22.10162651521182C13.043689182956768,21.997972318862367,12.936946492518473,21.890200130394533,12.833996689558262,21.777443004098927C10.785024690103455,22.48332645571577,9.535701739120668,23.876258963418195,8.509888228776617,25.271418437910995L7.937866613062397,24.848078011314783C8.957232214695068,23.461620504377493,10.28214199469403,21.981771270922764,12.379717137966509,21.186830821334183C12.293022567052503,21.055271809971714,12.194407492636856,20.93205715105961,12.121800789496774,20.792424707780697C10.144460179260022,21.135626840387886,8.602976524295627,21.979181270616778,7.409463203339328,22.97513933810228L6.953233023902612,22.43617002754911C8.191935889948581,21.40249982171582,9.801095494332912,20.484393478911272,11.85136791235027,20.100661634401717C11.73324655947954,19.732534812656525,11.64871935283827,19.350818616920492,11.632464120791155,18.948387837146697C11.532223523171979,16.29091206285534,13.866041372186373,14.110857872178713,16.759689412881016,14.014935747872755ZZM16.79761828765595,15.082536041397589C14.409778884139996,15.160723707541138,12.610324696598582,16.904151528628915,12.68618244614936,18.91311398360608C12.762040195699228,20.922060183351107,14.688610297843297,22.545112592724422,17.076395517252422,22.46697911068793C19.464234920768376,22.38879144454438,21.265693920262038,20.645347368224634,21.18983617071126,18.63640116847938C21.11397842116139,16.627444131912966,19.18540350706462,15.004402559360983,16.79761828765595,15.082536041397589ZZM16.857762646227457,15.97048892875597L16.857762646227457,15.97048892875597ZC17.124890292857344,15.969351062512715,17.34108487907497,16.047105255801398,17.519892431585504,16.106761957411948C17.698699984096493,16.166201922595064,17.843913390378475,16.202505274165446,17.95336528615735,16.201746696669943C18.148969911782842,16.20093393506761,18.33536323924909,16.310169094419734,18.440480406482493,16.435063460643164C18.545055732648052,16.559903642759764,18.592737746650528,16.696393407843175,18.630666621425917,16.81917459390064C18.70814989418068,17.06473696601563,18.746620610024365,17.310786995091917,18.779131074116776,17.39737861620347C18.8549888236671,17.59439202860625,18.783519986769534,17.75038807214537,18.723321444091198,17.853771347960674C18.663177085519237,17.95720880788292,18.595988793060314,18.044120115224587,18.512545268555186,18.128430585438707C18.346741901681526,18.297051525867346,18.130547315464355,18.458140875447498,17.917820512082926,18.615762442191112C17.58892298367664,18.85915745003325,17.391150993777956,18.980746585740576,17.25699114528834,19.065924001663973L17.300338430744887,19.89605702863298C17.37782170349965,19.95815201505053,17.562047666692706,20.114148058589535,17.862010882056893,20.2140635515683C18.040276593499584,20.273666069071908,18.215833099600786,20.28515309971806,18.369715962973714,20.244948492456558C18.49867413720858,20.21189618729545,18.62979967571664,20.099464165640825,18.762008896361294,19.929000965580485C18.751172074997157,19.85872417903306,18.74575366431509,19.83699635219773,18.729498432268883,19.726623326602237C18.70240637885763,19.52364966244909,18.661226457673365,19.280579759247814,18.64497122562716,19.210357156807277L19.33056272923932,19.030682658587182C19.368491604014707,19.188195857117307,19.39287445208447,19.41121764079446,19.42538491617688,19.62126774929851C19.457895380269292,19.831285347338735,19.48119454620246,20.013614866793034,19.48119454620246,20.013614866793034L19.502868188931643,20.139592915152832L19.426468598313477,20.24492681881395C19.18914221043542,20.62020594265948,18.875687152472892,20.849458898621094,18.54678962406706,20.934630896133854C18.217892095660318,21.01975412795025,17.903678460202173,20.969308724499513,17.638176336777178,20.8809886303805C17.25509470154975,20.75360179524307,17.006335467131976,20.579020603064464,16.863831266191482,20.47005636424649C16.72837099913795,20.58015846930755,16.48725172378181,20.761621043052855,16.101840171961157,20.893396790842644C15.837421730672304,20.983775881020847,15.522666254146316,21.035684255355818,15.193226884672185,20.953270228880342C14.863787515198055,20.870856202404866,14.535540196072816,20.640953037161353,14.294962761785882,20.267684143678935L14.2288581514631,20.162350240017986L14.239694972828147,20.03637219165796C14.239694972828147,20.03637219165796,14.26678702623849,19.85436777684464,14.293879079648832,19.64402507416355C14.320971133060084,19.43373655558935,14.350772391811915,19.20746372550292,14.388701266586395,19.049300317691063L15.078410762317617,19.21862565150832C15.062155530270957,19.288685701628424,15.02097560908669,19.535819412841136,14.993883555675893,19.739009813421717C14.977628323629688,19.85182112382404,14.983046734311756,19.8792382818757,14.972209912947164,19.949623436636728C15.106044656796257,20.11889458634704,15.235544672099422,20.235119495479125,15.36450284633429,20.26762995957199C15.518385709707218,20.306100675415223,15.692316692604436,20.28713623802787,15.870582404047127,20.226450038387725C16.163718421951216,20.12620944076798,16.340900451257767,19.973464443638363,16.424018871121916,19.906384519393214L16.461947745897305,19.057671762195014C16.315650657478727,18.964854387209925,16.13684310496774,18.856431989460134,15.819703527741694,18.626095351361982C15.605134464728508,18.470316044250126,15.394900130261703,18.30825138074721,15.227091951434886,18.140822490668825C15.14310658586237,18.05710804562966,15.066706995243294,17.969546529006095,15.006020795603945,17.86616325319062C14.946418278100282,17.762779977375317,14.873269733890993,17.606892302049914,14.950211165577457,17.409824705540245L14.93937434421332,17.409824705540245C14.971884808305731,17.32204645248953,15.013064729490907,17.073666506819904,15.08783879690418,16.827486435887067C15.125767671679569,16.704434329295623,15.170198639272712,16.571087242407884,15.273690283301676,16.445488482795668C15.377723768398937,16.319889723183564,15.565742619070079,16.21553113344538,15.760805403626364,16.214230714881637C15.871882822611042,16.213797242027113,16.01601254675552,16.167632383015302,16.19427825819821,16.106837815161498C16.3725439696409,16.045934879094148,16.592531443336156,15.971973573282867,16.857762646227457,15.97048892875597ZZM6.163120378231724,17.519238672444885C7.001781983614819,17.490521095829536,7.706175372293728,18.17827996371443,7.736681024434347,19.05766092537374C7.769191488527213,19.936917263587134,7.1131303231327365,20.67535452658217,6.274631270070131,20.705529655671057C5.435969664687491,20.734247232286634,4.7316304601154116,20.04443478675296,4.701124807974793,19.165042988272432C4.668614343881927,18.285797486880256,5.3246213251695735,17.54941921994447,6.163120378231724,17.519238672444885ZZM28.2297062494913,17.519238672444885C29.069397352903707,17.48889557262487,29.776825051565083,18.17708791336446,29.807384887812532,19.05766092537374C29.839895351905398,19.938038874598305,29.18079987652891,20.676931284090756,28.341217141330162,20.705529655671057C27.502555535947067,20.734247232286634,26.798216331374988,20.04443478675296,26.76771067923437,19.165042988272432C26.735200215141504,18.285797486880256,27.39120719642915,17.54941921994447,28.2297062494913,17.519238672444885ZZM17.066317273383447,25.516975391615233C20.55875387856122,25.518411270445995,23.683713871276268,27.424635240479006,24.909195815258045,30.299519324980793C20.095425581130712,30.489217882962862,14.077359388790228,30.501896963959098,9.233787895911519,30.289224344684726C10.463062727370016,27.42321561688027,13.582008284228323,25.525070497174283,17.066317273383447,25.516975391615233ZZ" style="font: medium sans-serif; stroke-opacity: 1; vector-effect: none; stroke: none; word-spacing: normal; text-decoration: none solid; isolation: auto; baseline-shift: baseline; color: rgb(0, 0, 0); fill-rule: nonzero; text-transform: none; overflow: visible; image-rendering: auto; stroke-dashoffset: 0; text-anchor: start; font-feature-settings: normal; text-indent: 0px; writing-mode: lr-tb; letter-spacing: normal; color-rendering: auto; text-orientation: mixed; opacity: 1; mix-blend-mode: normal; stroke-linejoin: round; stroke-dasharray: none; white-space: normal; stroke-miterlimit: 4; text-align: start; display: inline; shape-rendering: auto; text-rendering: auto; dominant-baseline: auto; visibility: visible; direction: ltr; color-interpolation: srgb; clip-rule: nonzero; color-interpolation-filters: linearrgb; fill: rgb(255, 255, 255); fill-opacity: 1; stroke-width: 0.196029;"/></g></g><g id="shape-962599c2-4192-11ec-8a9f-ab36af4492a0" style="fill: rgb(255, 255, 255);"><g id="shape-962599d4-4192-11ec-8a9f-ab36af4492a0"><path d="M16.743271628513867,0.35908869479783334C8.581140329246864,0.35908869479783334,1.9475426834142127,6.97880437246306,1.9475426834142127,15.13622165443644C1.9475426834142127,18.637381900812898,1.9908899688707606,22.00612160852853,1.4290007811323449,24.521651278179547C0.4133738828704736,26.737374866376854,0.08247154251193933,28.2737272864249,0.0000033319292924716137,30.73522998316446C1.279290093984855,30.935386073763084,2.930496565262274,31.094145506749896,4.827969802043299,31.218443847798426C8.622862091498973,31.467094714002087,13.41051558613799,31.573187195158653,18.108006727025895,31.557094515432595C22.8054978679138,31.540839283386163,27.41033418613688,31.403049099739178,30.85936932175173,31.156457229594594C32.5839410736653,31.033134202469,33.3202489012624,30.879468075523278,34.34714609374305,30.700118681944105C34.53245573907225,28.545931983863966,33.27045370709311,26.75593834137385,32.69100886874412,25.114289946539543C32.06940879528884,22.707404829476218,31.986019454890084,19.274012645501273,31.834033035255743,15.262188865975077C31.519765215691223,6.978159581591854,24.90534874367313,0.359077857976672,16.743271628513867,0.35908869479783334ZZM9.092421561213996,6.57267823660402C10.021516440881896,6.506031785213622,10.954783496775235,6.7578795137198995,11.717045511540164,7.293364786204563C12.501089537247026,7.844027027009815,11.673698226082706,9.019014801844264,10.891062987153418,8.468341724217453C10.406115231101012,8.127740428737809,9.78668252191801,7.959390408843433,9.195696468816095,8.001654012164124C8.588075894920166,8.045001297621354,7.982893605831123,8.316680409224148,7.547795228054383,8.742984706463517C6.862799749617807,9.413133739631576,5.856871806477102,8.384773576266753,6.542138205448282,7.714613706277419C7.226916947457539,7.043809045416765,8.136234628135753,6.641221131733232,9.092421561213996,6.57267823660402ZZM24.80705877389937,6.57267823660402C25.763137338763954,6.641221131733232,26.672617571762657,7.043809045416765,27.35734212966554,7.71461912468817C28.0423917922094,8.384573095071573,27.32483166557313,9.41295493207906,26.64081150105858,8.742990124874268C26.20571312328184,8.316669572402816,25.307340632181422,8.045006716031935,24.699720058285493,8.001659430574875C24.10867982107675,7.95939582725407,23.493419288119185,8.12769166304156,23.00847153206678,8.468347142628204C22.22583629313749,9.019020220255015,21.39844498197317,7.844032445420453,22.182489007680033,7.293370204615144C22.944805206551337,6.757922861005397,23.877855526017356,6.506037203624317,24.80705877389937,6.57267823660402ZZM24.89375334481383,10.151316337324602C26.814471563422103,10.20008203346407,28.312607932928586,11.870149992326333,28.26384223678906,13.824955432535262C28.215076540649534,15.779733780691004,26.63273806914185,17.36357315195761,24.71201985053449,17.314802037407503C22.79130163192667,17.266036341268205,21.28492927818297,15.60629045475548,21.333694974322043,13.65149585136777C21.38246067046157,11.696712084801334,22.973035126206014,10.102556059596054,24.89375334481383,10.151316337324602ZZM9.07378222846819,10.153380751794543C10.994500447075552,10.104615055655245,12.585074902820452,11.688465263743183,12.633840598959978,13.643238193488173C12.682606295098594,15.598032796875884,11.174229129403102,17.257784101799416,9.253456726687546,17.30654437952785C7.332738508080183,17.355310075667262,5.754572212797939,15.771481541222101,5.705806516658413,13.816697774655722C5.657040820518887,11.86189233444668,7.153009825753543,10.20215186634465,9.07378222846819,10.153380751794543ZZM9.302981000322688,11.468797476278212C8.536356870190502,11.488836651100257,7.931822734974048,12.158983052820304,7.952442137797334,12.96591518457683C7.973756556660192,13.772165529947074,8.611299758153109,14.409696609463538,9.377321594881778,14.390767549607801C9.745833419559403,14.381694888345692,10.095424258973253,14.2188237274313,10.349108606591926,13.938020907206635C10.602792954211509,13.65721808698197,10.739766426530878,13.281511948043772,10.729865269358925,12.893639004487795C10.708549755688182,12.086548949366033,10.069770439733475,11.448684115837864,9.302981000322688,11.468797476278212ZZM24.730550815067545,11.468797476278212C23.963810389942864,11.449912822053761,23.32598692263582,12.0886652762332,23.305725542089476,12.895698000546986C23.285100159965623,13.702612608512482,23.88960340008225,14.372756498963156,24.656210220513003,14.392826545667333C25.024781392382465,14.402494649989308,25.382269302439,14.257539209211984,25.64991990616636,13.989893687136714C25.91757050989372,13.72224816506133,26.073424929851626,13.353871022213411,26.083148673651976,12.965915184576943C26.093046961555956,12.578034445050207,25.956064875745597,12.202322616255628,25.70236917957618,11.921520516176429C25.448673483406765,11.640718416097286,25.099070343870608,11.477855270196073,24.730550815067545,11.468797476278212ZZM16.759689412881016,14.014935747872755L16.759689412881016,14.014935747872755ZC19.6556131860616,13.92125142717839,22.158539632465818,15.941765933729926,22.25878023008545,18.599236289610644C22.275035462131655,19.07096312359829,22.19430114296756,19.519146963172204,22.06859401514157,19.95180705614166C24.115994675498314,20.217200811353223,25.758260769150183,21.03219479887639,27.047300670433287,21.98169541317327L26.624122796157735,22.551647196006968C25.375612606777395,21.631958677283365,23.789752168325776,20.88665086954336,21.802333314221414,20.662171533392552C21.734603180694194,20.799853348825877,21.656578066871134,20.93233349000434,21.575301906639197,21.062754635123838C23.709993163085073,21.73095845885689,25.113578266188142,23.127136594557896,26.2132988982371,24.44729984679907L25.67199967109036,24.901579398390425C24.560304351434297,23.566932734395778,23.218543314214457,22.251245089378074,21.118692438454673,21.67398928894471C21.008156860538747,21.800671730693466,20.908458103987414,21.931797269201297,20.784376499366317,22.047751257799405C22.790272133897815,23.118223308985876,23.773984593241494,24.93581291708017,24.476589906395475,26.60726798907706L23.821991711885403,26.88192722655515C23.101993300441336,25.169032149661234,22.17950888180576,23.45587698905456,20.18136157455001,22.520648468494528C19.323302058925037,23.116207660212126,18.269475365354992,23.494575278146385,17.118984225214263,23.532498734510796C15.853243489864326,23.573678655695176,14.678369501654743,23.193685514556137,13.73236918065868,22.549555689483668L13.748624412704885,22.5744803786215C11.763047818231826,23.62438956126931,10.930292280492722,25.406331445485762,10.308367102395096,27.17943048346899L9.641360747422368,26.94611371949577C10.252503288262233,25.20379125418708,11.144427870650361,23.28757573485626,13.158017648350324,22.10162651521182C13.043689182956768,21.997972318862367,12.936946492518473,21.890200130394533,12.833996689558262,21.777443004098927C10.785024690103455,22.48332645571577,9.535701739120668,23.876258963418195,8.509888228776617,25.271418437910995L7.937866613062397,24.848078011314783C8.957232214695068,23.461620504377493,10.28214199469403,21.981771270922764,12.379717137966509,21.186830821334183C12.293022567052503,21.055271809971714,12.194407492636856,20.93205715105961,12.121800789496774,20.792424707780697C10.144460179260022,21.135626840387886,8.602976524295627,21.979181270616778,7.409463203339328,22.97513933810228L6.953233023902612,22.43617002754911C8.191935889948581,21.40249982171582,9.801095494332912,20.484393478911272,11.85136791235027,20.100661634401717C11.73324655947954,19.732534812656525,11.64871935283827,19.350818616920492,11.632464120791155,18.948387837146697C11.532223523171979,16.29091206285534,13.866041372186373,14.110857872178713,16.759689412881016,14.014935747872755ZZM16.79761828765595,15.082536041397589C14.409778884139996,15.160723707541138,12.610324696598582,16.904151528628915,12.68618244614936,18.91311398360608C12.762040195699228,20.922060183351107,14.688610297843297,22.545112592724422,17.076395517252422,22.46697911068793C19.464234920768376,22.38879144454438,21.265693920262038,20.645347368224634,21.18983617071126,18.63640116847938C21.11397842116139,16.627444131912966,19.18540350706462,15.004402559360983,16.79761828765595,15.082536041397589ZZM16.857762646227457,15.97048892875597L16.857762646227457,15.97048892875597ZC17.124890292857344,15.969351062512715,17.34108487907497,16.047105255801398,17.519892431585504,16.106761957411948C17.698699984096493,16.166201922595064,17.843913390378475,16.202505274165446,17.95336528615735,16.201746696669943C18.148969911782842,16.20093393506761,18.33536323924909,16.310169094419734,18.440480406482493,16.435063460643164C18.545055732648052,16.559903642759764,18.592737746650528,16.696393407843175,18.630666621425917,16.81917459390064C18.70814989418068,17.06473696601563,18.746620610024365,17.310786995091917,18.779131074116776,17.39737861620347C18.8549888236671,17.59439202860625,18.783519986769534,17.75038807214537,18.723321444091198,17.853771347960674C18.663177085519237,17.95720880788292,18.595988793060314,18.044120115224587,18.512545268555186,18.128430585438707C18.346741901681526,18.297051525867346,18.130547315464355,18.458140875447498,17.917820512082926,18.615762442191112C17.58892298367664,18.85915745003325,17.391150993777956,18.980746585740576,17.25699114528834,19.065924001663973L17.300338430744887,19.89605702863298C17.37782170349965,19.95815201505053,17.562047666692706,20.114148058589535,17.862010882056893,20.2140635515683C18.040276593499584,20.273666069071908,18.215833099600786,20.28515309971806,18.369715962973714,20.244948492456558C18.49867413720858,20.21189618729545,18.62979967571664,20.099464165640825,18.762008896361294,19.929000965580485C18.751172074997157,19.85872417903306,18.74575366431509,19.83699635219773,18.729498432268883,19.726623326602237C18.70240637885763,19.52364966244909,18.661226457673365,19.280579759247814,18.64497122562716,19.210357156807277L19.33056272923932,19.030682658587182C19.368491604014707,19.188195857117307,19.39287445208447,19.41121764079446,19.42538491617688,19.62126774929851C19.457895380269292,19.831285347338735,19.48119454620246,20.013614866793034,19.48119454620246,20.013614866793034L19.502868188931643,20.139592915152832L19.426468598313477,20.24492681881395C19.18914221043542,20.62020594265948,18.875687152472892,20.849458898621094,18.54678962406706,20.934630896133854C18.217892095660318,21.01975412795025,17.903678460202173,20.969308724499513,17.638176336777178,20.8809886303805C17.25509470154975,20.75360179524307,17.006335467131976,20.579020603064464,16.863831266191482,20.47005636424649C16.72837099913795,20.58015846930755,16.48725172378181,20.761621043052855,16.101840171961157,20.893396790842644C15.837421730672304,20.983775881020847,15.522666254146316,21.035684255355818,15.193226884672185,20.953270228880342C14.863787515198055,20.870856202404866,14.535540196072816,20.640953037161353,14.294962761785882,20.267684143678935L14.2288581514631,20.162350240017986L14.239694972828147,20.03637219165796C14.239694972828147,20.03637219165796,14.26678702623849,19.85436777684464,14.293879079648832,19.64402507416355C14.320971133060084,19.43373655558935,14.350772391811915,19.20746372550292,14.388701266586395,19.049300317691063L15.078410762317617,19.21862565150832C15.062155530270957,19.288685701628424,15.02097560908669,19.535819412841136,14.993883555675893,19.739009813421717C14.977628323629688,19.85182112382404,14.983046734311756,19.8792382818757,14.972209912947164,19.949623436636728C15.106044656796257,20.11889458634704,15.235544672099422,20.235119495479125,15.36450284633429,20.26762995957199C15.518385709707218,20.306100675415223,15.692316692604436,20.28713623802787,15.870582404047127,20.226450038387725C16.163718421951216,20.12620944076798,16.340900451257767,19.973464443638363,16.424018871121916,19.906384519393214L16.461947745897305,19.057671762195014C16.315650657478727,18.964854387209925,16.13684310496774,18.856431989460134,15.819703527741694,18.626095351361982C15.605134464728508,18.470316044250126,15.394900130261703,18.30825138074721,15.227091951434886,18.140822490668825C15.14310658586237,18.05710804562966,15.066706995243294,17.969546529006095,15.006020795603945,17.86616325319062C14.946418278100282,17.762779977375317,14.873269733890993,17.606892302049914,14.950211165577457,17.409824705540245L14.93937434421332,17.409824705540245C14.971884808305731,17.32204645248953,15.013064729490907,17.073666506819904,15.08783879690418,16.827486435887067C15.125767671679569,16.704434329295623,15.170198639272712,16.571087242407884,15.273690283301676,16.445488482795668C15.377723768398937,16.319889723183564,15.565742619070079,16.21553113344538,15.760805403626364,16.214230714881637C15.871882822611042,16.213797242027113,16.01601254675552,16.167632383015302,16.19427825819821,16.106837815161498C16.3725439696409,16.045934879094148,16.592531443336156,15.971973573282867,16.857762646227457,15.97048892875597ZZM6.163120378231724,17.519238672444885C7.001781983614819,17.490521095829536,7.706175372293728,18.17827996371443,7.736681024434347,19.05766092537374C7.769191488527213,19.936917263587134,7.1131303231327365,20.67535452658217,6.274631270070131,20.705529655671057C5.435969664687491,20.734247232286634,4.7316304601154116,20.04443478675296,4.701124807974793,19.165042988272432C4.668614343881927,18.285797486880256,5.3246213251695735,17.54941921994447,6.163120378231724,17.519238672444885ZZM28.2297062494913,17.519238672444885C29.069397352903707,17.48889557262487,29.776825051565083,18.17708791336446,29.807384887812532,19.05766092537374C29.839895351905398,19.938038874598305,29.18079987652891,20.676931284090756,28.341217141330162,20.705529655671057C27.502555535947067,20.734247232286634,26.798216331374988,20.04443478675296,26.76771067923437,19.165042988272432C26.735200215141504,18.285797486880256,27.39120719642915,17.54941921994447,28.2297062494913,17.519238672444885ZZM17.066317273383447,25.516975391615233C20.55875387856122,25.518411270445995,23.683713871276268,27.424635240479006,24.909195815258045,30.299519324980793C20.095425581130712,30.489217882962862,14.077359388790228,30.501896963959098,9.233787895911519,30.289224344684726C10.463062727370016,27.42321561688027,13.582008284228323,25.525070497174283,17.066317273383447,25.516975391615233ZZ" style="font: medium sans-serif; stroke-opacity: 1; vector-effect: none; stroke: none; word-spacing: normal; text-decoration: none solid; isolation: auto; baseline-shift: baseline; color: rgb(0, 0, 0); fill-rule: nonzero; text-transform: none; overflow: visible; image-rendering: auto; stroke-dashoffset: 0; text-anchor: start; font-feature-settings: normal; text-indent: 0px; writing-mode: lr-tb; letter-spacing: normal; color-rendering: auto; text-orientation: mixed; opacity: 1; mix-blend-mode: normal; stroke-linejoin: round; stroke-dasharray: none; white-space: normal; stroke-miterlimit: 4; text-align: start; display: inline; shape-rendering: auto; text-rendering: auto; dominant-baseline: auto; visibility: visible; direction: ltr; color-interpolation: srgb; clip-rule: nonzero; color-interpolation-filters: linearrgb; fill: rgb(255, 255, 255); fill-opacity: 1; stroke-width: 0.196029;"/></g></g></g></g></svg>